<?xml version="1.0" encoding="utf-8"?>
<!-- Generator: Adobe Illustrator 17.0.0, SVG Export Plug-In . SVG Version: 6.00 Build 0)  -->
<!DOCTYPE svg PUBLIC "-//W3C//DTD SVG 1.1//EN" "http://www.w3.org/Graphics/SVG/1.1/DTD/svg11.dtd">
<svg version="1.1" id="Layer_1" xmlns="http://www.w3.org/2000/svg" xmlns:xlink="http://www.w3.org/1999/xlink" x="0px" y="0px"
	 width="256px" height="256px" viewBox="0 0 256 256" enable-background="new 0 0 256 256" xml:space="preserve">
<path fill="#1C75BC" d="M115.614,32.882l-4.45,19.461c30.942,7.076,50.702,37.084,45.413,67.998l13,2.973
	c6.434-35.506-14.195-70.19-47.898-81.789c-0.616-1.097-1.656-2.638-2.771-4.211C117.788,35.734,116.58,34.12,115.614,32.882z"/>
<path fill="#F7941E" d="M79.18,39.983v13.863c8.975-2.962,18.78-3.851,28.673-2.162l2.992-13.004
	C100.003,36.725,89.222,37.287,79.18,39.983z"/>
<path fill="#F7941E" d="M20.412,92.649l19.461,4.443c3.051-13.418,9.405-24.859,19.298-32.916l1.022-16.106
	c-14.188,8.59-25.474,21.979-31.161,38.507c-1.096,0.622-2.636,1.659-4.206,2.784C23.256,90.487,21.627,91.671,20.412,92.649z"/>
<path fill="#ED1C24" d="M80.17,187.866l4.45-19.461c-30.942-7.076-50.702-37.084-45.413-67.998l-13-2.973
	c-6.434,35.506,14.195,70.19,47.898,81.789c0.616,1.097,1.656,2.638,2.771,4.211C77.996,185.014,79.204,186.628,80.17,187.866z"/>
<rect x="141.103" y="151.036" transform="matrix(-0.7071 0.7071 -0.7071 -0.7071 385.2549 178.1712)" fill="#B7B7B7" width="29.248" height="35.678"/>
<path fill="#39B54A" d="M175.384,128.096l-19.461-4.45c-7.076,30.942-37.084,50.702-67.998,45.413l-2.973,13
	c35.506,6.434,70.19-14.195,81.789-47.898c1.097-0.616,2.638-1.656,4.211-2.771C172.532,130.27,174.146,129.062,175.384,128.096z"/>
<path fill="#009444" d="M205.395,247.842c3.046,3.046,7.984,3.046,11.03,0l18.269-18.269c3.046-3.046,3.046-7.984,0-11.03
	l-53.083-53.083c-3.046-3.046-7.984-3.046-11.03,0l-18.269,18.269c-3.046,3.046-3.046,7.984,0,11.03L205.395,247.842z"/>
<rect x="93.507" y="124.271" transform="matrix(-0.7071 -0.7071 0.7071 -0.7071 105.2194 307.4304)" fill="#ED1C24" width="45.548" height="15.304"/>
<polygon fill="#F7941E" points="94.55,105.778 94.766,121.231 105.588,110.409 101.238,92.007 "/>
<polygon fill="#1C75BC" points="60.205,92.935 94.55,105.778 101.238,92.007 76.427,86.021 "/>
<g>
	<polygon fill="#39B54A" points="87.126,23.638 70.66,4.379 54.101,23.559 	"/>
	<polygon fill="#39B54A" points="64.08,22.799 60.205,92.935 76.427,86.021 76.427,22.999 	"/>
</g>
<g>
	<path fill="#232323" d="M84.247,244.381c5.059-0.098,7.961-2.79,8.893-8.226c0.815-4.755,0.439-9.541,0.398-14.319
		c-0.007-0.766-0.001-1.533-0.001-2.359c1.779,0,3.479,0,5.397,0c0,4.131,0,8.268,0,12.474c2.452,0,4.687,0,7.066,0
		c0-5.013,0-10.004,0-15.059c1.875,0,3.606,0,5.442,0c0,5.005,0,9.971,0,15.033c1.866,0,3.632,0,5.553,0c0-4.951,0-9.942,0-15.014
		c1.879,0,3.607,0,5.435,0c0,4.991,0,9.957,0,15.016c1.897,0,3.697,0,5.606,0c0-4.977,0-9.943,0-15.004c1.828,0,3.553,0,5.415,0
		c0,4.991,0,9.985,0,15.037c3.654,0,7.171,0,10.779,0c0-5.02,0-9.985,0-15.041c1.809,0,3.53,0,5.329,0
		c0.021,0.35,0.057,0.688,0.058,1.026c0.006,5.525,0.009,11.049,0.008,16.574c0,1.674-0.993,2.83-2.574,2.835
		c-8.131,0.022-16.262,0.008-24.393,0.004c-0.073,0-0.147-0.04-0.287-0.081c-0.031-0.351-0.065-0.725-0.13-1.45
		c-1.109,1.889-2.768,1.536-4.319,1.546c-2.172,0.013-4.345,0.003-6.537,0.003c-0.032-0.484-0.058-0.861-0.107-1.6
		c-0.98,1.672-2.375,1.624-3.789,1.608c-2.723-0.03-5.447,0.011-8.17-0.022c-0.692-0.008-0.934,0.201-1.187,0.894
		c-0.768,2.101-1.497,4.269-2.642,6.169c-1.754,2.911-4.593,4.433-7.907,5.07c-0.338,0.065-0.668,0.169-1.002,0.255
		c-0.778,0-1.556,0-2.334,0C84.247,247.96,84.247,246.171,84.247,244.381z"/>
	<path fill="#232323" d="M120.664,200.727c1.74,1.162,2.273,2.146,1.93,3.566c-0.32,1.321-1.323,2.184-2.62,2.256
		c-1.335,0.074-2.492-0.658-2.932-1.856c-0.456-1.24-0.03-2.659,1.032-3.435c0.241-0.176,0.482-0.354,0.723-0.531
		C119.419,200.727,120.041,200.727,120.664,200.727z"/>
	<path fill="#232323" d="M149.844,210.998c-0.551,1.006-1.199,1.896-2.45,2.072c-1.508,0.212-2.875-0.683-3.277-2.143
		c-0.378-1.371,0.358-2.867,1.69-3.435c1.351-0.576,2.82-0.093,3.624,1.193c0.14,0.225,0.275,0.453,0.413,0.679
		C149.844,209.909,149.844,210.454,149.844,210.998z"/>
	<path fill="#232323" d="M118.592,210.177c0.005,1.69-1.243,2.929-2.931,2.909c-1.591-0.018-2.873-1.312-2.872-2.898
		c0.001-1.595,1.272-2.889,2.86-2.912C117.337,207.252,118.587,208.484,118.592,210.177z"/>
	<path fill="#232323" d="M123.821,213.086c-1.627,0.023-2.888-1.183-2.925-2.799c-0.04-1.703,1.175-2.995,2.832-3.011
		c1.655-0.016,2.97,1.276,2.967,2.917C126.692,211.78,125.417,213.064,123.821,213.086z"/>
</g>
<g>
</g>
<g>
</g>
<g>
</g>
<g>
</g>
<g>
</g>
<g>
</g>
</svg>
